<svg width="99" height="36" viewBox="0 0 99 36" fill="none" xmlns="http://www.w3.org/2000/svg">
<path d="M17.828 13.015L17.8279 13.0149L17.8205 13.0194C17.3209 13.3193 16.6503 13.4586 15.9719 13.4488C15.2935 13.4389 14.638 13.2802 14.1745 13.0164L14.1745 13.0164L14.1712 13.0146C11.9897 11.8163 9.81875 10.6075 7.64703 9.39842L7.64677 9.39828C5.47535 8.18932 3.30321 6.97996 1.12037 5.78088L0.860482 6.20745L13.2711 14.5541C13.9436 15.0518 14.3476 15.529 14.6012 16.0285C14.8557 16.5298 14.968 17.0716 15.0303 17.7165C15.1538 20.0459 15.2678 22.3754 15.3815 24.7005C15.5011 27.1448 15.6204 29.5842 15.7504 32.0134L16.2497 32.0126L16.9699 17.713C16.9699 17.7126 16.9699 17.7121 16.97 17.7117C17.0854 15.8046 18.182 14.9831 18.6006 14.6696C18.6166 14.6576 18.6317 14.6463 18.6457 14.6357C20.7198 13.2318 22.8046 11.8278 24.8896 10.4236C26.9765 9.0182 29.0636 7.61263 31.1401 6.20703L30.8788 5.78134L17.828 13.015Z" fill="black" stroke="black" stroke-width="0.5"/>
<rect x="44" width="55" height="36" rx="8" fill="#FFE079"/>
<path d="M62.3887 7.51074C56.2949 7.51074 52.4863 11.7148 52.4863 18.4385C52.4863 25.1621 56.2949 29.3516 62.3887 29.3516C68.4678 29.3516 72.291 25.1621 72.291 18.4385C72.291 11.7148 68.4678 7.51074 62.3887 7.51074ZM62.3887 10.3965C66.4023 10.3965 68.9219 13.502 68.9219 18.4385C68.9219 23.3604 66.4023 26.4658 62.3887 26.4658C58.375 26.4658 55.8408 23.3604 55.8408 18.4385C55.8408 13.502 58.375 10.3965 62.3887 10.3965ZM74.4883 23.1113C74.6934 26.9346 77.8574 29.3516 82.5449 29.3516C87.5547 29.3516 90.7041 26.876 90.7041 22.9209C90.7041 19.8301 88.9023 18.0869 84.5664 17.0615L82.2373 16.4902C79.5127 15.8164 78.3994 14.9375 78.3994 13.4434C78.3994 11.5684 80.1426 10.2793 82.6914 10.2793C85.2402 10.2793 86.9834 11.5537 87.1738 13.6631L90.3672 13.6631C90.2646 10.0156 87.2031 7.51074 82.7354 7.51074C78.2236 7.51074 75.0449 10.0156 75.0449 13.6631C75.0449 16.6074 76.8467 18.4238 80.7285 19.3613L83.4678 20.0205C86.207 20.6943 87.3643 21.6758 87.3643 23.3164C87.3643 25.2061 85.4453 26.583 82.7793 26.583C79.9961 26.583 77.96 25.2061 77.7256 23.1113L74.4883 23.1113Z" fill="white"/>
</svg>
